<?xml version="1.0" encoding="utf-8"?>
<!-- Generator: Adobe Illustrator 21.0.0, SVG Export Plug-In . SVG Version: 6.00 Build 0)  -->
<svg version="1.1" id="Layer_1" xmlns="http://www.w3.org/2000/svg" xmlns:xlink="http://www.w3.org/1999/xlink" x="0px" y="0px"
	 width="510.1px" height="362.6px" viewBox="0 0 510.1 362.6" enable-background="new 0 0 510.1 362.6" xml:space="preserve">
<title></title>
<desc></desc>
<g id="SVG">
	<g id="Bread">
		<g id="_x32_" transform="translate(0.000000, 72.000000)">
			<path id="Fill-1" fill="#F8E6C4" d="M255.4-41c-24.3-11.7-58.2-20.6-105.2-20.6S69.4-52.8,45.1-41C9.1-23.6-1,32.8,24.9,67.9
				c8.3,11.3,12.9,25.9,12.9,41v140.6c0,17,13.8,30.7,30.7,30.7h81.8h81.8c17,0,30.7-13.8,30.7-30.7V109c0-15.2,4.6-29.8,12.9-41
				C301.6,32.8,291.4-23.6,255.4-41"/>
			<path id="Fill-3" fill="#FBAE3A" d="M465-41c-22.3-10.8-52.9-19.3-94.1-20.6H164.1v0.3c39.9,1.6,69.5,9.7,91.3,20.3
				c36,17.4,46.1,73.8,20.3,109c-8.3,11.3-12.9,25.9-12.9,41v140.6c0,17-13.8,30.7-30.7,30.7H278h81.8h11.1h70.7
				c17,0,30.7-13.8,30.7-30.7V109c0-15.2,4.6-29.8,12.9-41C511.1,32.8,501-23.6,465-41"/>
			<path id="Fill-5" opacity="0.15" fill="#010202" enable-background="new    " d="M488.4-19.1c-0.6,2.1-3.1,71.6-204.1,71.6
				l-0.1,0c-2.2,5.4-5,10.7-8.6,15.5c-3.8,5.1-6.7,10.9-8.9,17.1c-0.7,1.9-1.2,3.8-1.7,5.8h111.8c0,0,36.9,1.8,36.9,39.8v34.7v115
				h27.8c17,0,30.7-13.7,30.7-30.7V109c0-8.3,1.4-16.4,4-23.9h0c2.2-6.2,5.1-12,8.9-17.1C504.1,42.4,503.7,5.7,488.4-19.1"/>
			<path id="Fill-7" fill="#2E2E30" d="M476.9,61.8c-9.6,13-14.9,29.8-14.9,47.2v140.6c0,11.2-9.1,20.3-20.3,20.3H267.7h0
				c3.4-6,5.4-12.9,5.4-20.3V109c0-13,3.9-25.4,10.9-34.9c15.1-20.5,20.2-48.4,13.8-74.6c-5.6-22.8-19.4-40.9-37.8-49.9
				c-0.7-0.3-1.4-0.6-2-0.9h112.6c35.1,1.1,65.3,7.7,89.9,19.6c12.8,6.2,22.6,19.4,26.7,36.2C492.2,24.8,488.4,46.2,476.9,61.8
				L476.9,61.8z M243.5,289c-0.4,0.1-0.8,0.2-1.2,0.3C242.7,289.2,243.1,289.1,243.5,289L243.5,289z M238.6,290.1
				c-0.5,0.1-0.9,0.2-1.4,0.2C237.6,290.2,238.1,290.1,238.6,290.1L238.6,290.1z M253.4,284.6c-0.3,0.2-0.5,0.3-0.8,0.5
				C252.9,284.9,253.2,284.7,253.4,284.6L253.4,284.6z M257.5,281.8c-0.1,0.1-0.3,0.2-0.4,0.3C257.2,282,257.4,281.9,257.5,281.8
				L257.5,281.8z M264.9,274.1c-0.1,0.1-0.2,0.2-0.3,0.4C264.8,274.4,264.8,274.2,264.9,274.1L264.9,274.1z M213.6-65.8
				c0.4,0.1,0.8,0.2,1.2,0.3C214.4-65.6,214-65.7,213.6-65.8L213.6-65.8z M200.9-68.1c0.7,0.1,1.3,0.2,2,0.3
				C202.2-67.9,201.5-68,200.9-68.1L200.9-68.1z M187.8-69.9c0.7,0.1,1.4,0.2,2,0.2C189.2-69.7,188.5-69.8,187.8-69.9L187.8-69.9z
				 M174.6-71.1c0.5,0,1.1,0.1,1.6,0.1C175.7-71,175.1-71.1,174.6-71.1L174.6-71.1z M68.5,269.9c-11.2,0-20.3-9.1-20.3-20.3V109
				c0-17.4-5.3-34.1-14.9-47.2c-11.5-15.6-15.3-37-10.3-57.3C27-12.3,36.8-25.5,49.6-31.7c26.8-13,60.7-19.6,100.6-19.6
				s73.8,6.6,100.6,19.6c12.8,6.2,22.6,19.4,26.7,36.2c5,20.3,1.2,41.8-10.3,57.3c-9.6,13.1-14.9,29.8-14.9,47.2v140.6
				c0,11.2-9.1,20.3-20.4,20.3H68.5z M507.3-0.5c-5.6-22.8-19.4-40.9-37.8-49.9c-27.2-13.2-60.3-20.5-98.6-21.6H164.1
				c-0.8,0-1.5,0.1-2.2,0.2l0,0c-3.8-0.1-7.7-0.2-11.6-0.2c-43.1,0-80,7.3-109.7,21.6C22.2-41.4,8.4-23.3,2.8-0.5
				c-6.5,26.2-1.4,54.1,13.7,74.6c7,9.5,10.9,21.9,10.9,34.9v140.6c0,22.7,18.4,41.1,41.1,41.1h163.6h209.5
				c22.7,0,41.1-18.4,41.1-41.1V109c0-13,3.9-25.4,10.9-34.9C508.7,53.6,513.8,25.7,507.3-0.5L507.3-0.5z"/>
		</g>
	</g>
</g>
</svg>
